<?xml version="1.0" encoding="UTF-8" standalone="no"?>
<!-- Created with Inkscape (http://www.inkscape.org/) -->
<svg
   xmlns:svg="http://www.w3.org/2000/svg"
   xmlns="http://www.w3.org/2000/svg"
   xmlns:xlink="http://www.w3.org/1999/xlink"
   version="1.0"
   width="600"
   height="600"
   id="svg2">
<title>Black Box Game Sample 8</title>
  <g
     id="LayerFrame"
     style="display:inline">
    <rect
       width="598"
       height="598"
       x="1"
       y="1"
       id="OuterFrame"
       style="opacity:1;fill:#fffff0;fill-opacity:1;fill-rule:evenodd;stroke:#cccccc;stroke-width:2;stroke-linecap:square;stroke-linejoin:miter;stroke-miterlimit:4;stroke-opacity:1;visibility:visible;display:inline;overflow:visible;enable-background:accumulate" />
  </g>
  <g
     id="LayerBackgrounds"
     style="display:inline">
    <rect
       width="400"
       height="50"
       x="100"
       y="50"
       id="BorderBackTop"
       style="opacity:1;fill:#cc0000;fill-opacity:1;fill-rule:evenodd;stroke:#ffffff;stroke-width:2;stroke-linecap:square;stroke-linejoin:miter;stroke-miterlimit:4;stroke-opacity:1;visibility:visible;display:inline;overflow:visible;enable-background:accumulate" />
    <rect
       width="50"
       height="400"
       x="500"
       y="100"
       id="BorderBackRight"
       style="opacity:1;fill:#cc0000;fill-opacity:1;fill-rule:evenodd;stroke:#ffffff;stroke-width:2;stroke-linecap:square;stroke-linejoin:miter;stroke-miterlimit:4;stroke-opacity:1;visibility:visible;display:inline;overflow:visible;enable-background:accumulate" />
    <rect
       width="400"
       height="50"
       x="100"
       y="500"
       id="BorderBackBottom"
       style="opacity:1;fill:#cc0000;fill-opacity:1;fill-rule:evenodd;stroke:#ffffff;stroke-width:2;stroke-linecap:square;stroke-linejoin:miter;stroke-miterlimit:4;stroke-opacity:1;visibility:visible;display:inline;overflow:visible;enable-background:accumulate" />
    <rect
       width="50"
       height="400"
       x="50"
       y="100"
       id="BorderBackLeft"
       style="opacity:1;fill:#cc0000;fill-opacity:1;fill-rule:evenodd;stroke:#ffffff;stroke-width:2;stroke-linecap:square;stroke-linejoin:miter;stroke-miterlimit:4;stroke-opacity:1;visibility:visible;display:inline;overflow:visible;enable-background:accumulate" />
    <rect
       width="400"
       height="400"
       x="100"
       y="100"
       id="GameBoxBack"
       style="opacity:1;fill:#000000;fill-opacity:1;fill-rule:evenodd;stroke:#ffffff;stroke-width:2;stroke-linecap:square;stroke-linejoin:miter;stroke-miterlimit:4;stroke-opacity:1;visibility:visible;display:inline;overflow:visible;enable-background:accumulate" />
  </g>
  <g
     id="LayerForegrids">
    <path
       d="M 150,50 L 150,550 M 200,50 L 200,550 M 250,50 L 250,550 M 300,50 L 300,550 M 350,50 L 350,550 M 400,50 L 400,550 M 450,50 L 450,550"
       id="BackGridsVertical"
       style="opacity:1;fill:none;fill-opacity:1;fill-rule:evenodd;stroke:#ffffff;stroke-width:2;stroke-linecap:square;stroke-linejoin:miter;stroke-miterlimit:4;stroke-opacity:1;visibility:visible;display:inline;overflow:visible;enable-background:accumulate" />
    <path
       d="M 50,150 L 550,150 M 50,200 L 550,200 M 50,250 L 550,250 M 50,300 L 550,300 M 50,350 L 550,350 M 50,400 L 550,400 M 50,450 L 550,450"
       id="BackgridsHorizontal"
       style="fill:none;fill-rule:evenodd;stroke:#ffffff;stroke-width:2;stroke-linecap:square;stroke-linejoin:miter;stroke-miterlimit:4;stroke-dasharray:none;stroke-opacity:1" />
  </g>
  <g
     id="LayerCirclesArrows"
     style="display:inline">
    <circle
       cx="175"
       cy="225"
       r="20"
       id="CircleMaster"
       style="fill:#00cc00;fill-opacity:1;stroke:none;stroke-opacity:1" />
    <use transform="translate(100,150)" xlink:href="#CircleMaster" />
    <use transform="translate(250,0)" xlink:href="#CircleMaster" />
    <use transform="translate(250,250)" xlink:href="#CircleMaster" />
    <path
       d="M 67,317 L 67,333 L 83,333 L 83,327 L 221,327 C 224.28941,327 227,324.28941 227,321 L 227,305 L 227,279 C 227,277.85741 227.85741,277 229,277 L 371,277 C 372.14259,277 373,277.85741 373,279 L 373,421 C 373,422.14259 372.14259,423 371,423 L 329,423 C 325.71059,423 323,425.71059 323,429 L 323,515 L 317,515 L 325,535 L 333,515 L 327,515 L 327,429 C 327,427.85741 327.85741,427 329,427 L 371,427 L 371,427 C 374.28941,427 377,424.28941 377,421 L 377,279 C 377,275.71059 374.28941,273 371,273 L 229,273 C 225.71059,273 223,275.71059 223,279 C 223,282.28941 223,305 223,305 L 223,321 C 223,322.14259 222.14259,323 221,323 L 83,323 L 83,317 L 67,317 z"
       id="path3507"
       style="opacity:1;fill:#ffff00;fill-opacity:1;fill-rule:evenodd;stroke:none;stroke-width:0.5;stroke-linecap:square;stroke-linejoin:miter;stroke-miterlimit:4;stroke-opacity:1;visibility:visible;display:inline;overflow:visible;enable-background:accumulate" />
  </g>
  <g
     id="LayerText">
    <text
       x="25.211914"
       y="334.88477"
       id="text3370"
       xml:space="preserve"
       style="font-size:28px;font-style:normal;font-variant:normal;font-weight:bold;font-stretch:normal;text-align:center;line-height:100%;writing-mode:lr-tb;text-anchor:middle;fill:#000000;fill-opacity:1;stroke:none;stroke-width:1px;stroke-linecap:butt;stroke-linejoin:miter;stroke-opacity:1;font-family:sans-serif"><tspan
         x="25.211914"
         y="334.88477"
         id="tspan3372">1</tspan></text>
    <text
       x="325.21191"
       y="584.88477"
       id="text3374"
       xml:space="preserve"
       style="font-size:28px;font-style:normal;font-variant:normal;font-weight:bold;font-stretch:normal;text-align:center;line-height:100%;writing-mode:lr-tb;text-anchor:middle;fill:#000000;fill-opacity:1;stroke:none;stroke-width:1px;stroke-linecap:butt;stroke-linejoin:miter;stroke-opacity:1;font-family:sans-serif"><tspan
         x="325.21191"
         y="584.88477"
         id="tspan3376">1</tspan></text>
  </g>
</svg>

